{
  "accessors": [
    {
      "bufferView": 2,
      "componentType": 5126,
      "count": 65532,
      "max": [
        0.243968203663826,
        0.19561867415905,
        0.3332534432411194
      ],
      "min": [
        -0.20228536427021027,
        -0.15571849048137665,
        0.021855533123016357
      ],
      "type": "VEC3"
    },
    {
      "bufferView": 2,
      "byteOffset": 786384,
      "componentType": 5126,
      "count": 65532,
      "max": [
        0.9759331345558167,
        0.9999915361404419,
        0.9999998807907104
      ],
      "min": [
        -0.9999334216117859,
        -0.9999988675117493,
        -0.999769389629364
      ],
      "type": "VEC3"
    },
    {
      "bufferView": 1,
      "componentType": 5126,
      "count": 65532,
      "max": [
        0.9935491681098938,
        0.9193973541259766
      ],
      "min": [
        0.000244140625,
        0.00037749542389065027
      ],
      "type": "VEC2"
    },
    {
      "bufferView": 1,
      "byteOffset": 524256,
      "componentType": 5126,
      "count": 65532,
      "max": [
        0.9935491681098938,
        0.9193973541259766
      ],
      "min": [
        0.000244140625,
        0.00037749542389065027
      ],
      "type": "VEC2"
    },
    {
      "bufferView": 0,
      "componentType": 5125,
      "count": 307671,
      "type": "SCALAR"
    },
    {
      "bufferView": 2,
      "byteOffset": 1572768,
      "componentType": 5126,
      "count": 65532,
      "max": [
        0.25709953904151917,
        0.19508539140224457,
        0.33882248401641846
      ],
      "min": [
        -0.2012537717819214,
        -0.19120347499847412,
        0.0014862418174743652
      ],
      "type": "VEC3"
    },
    {
      "bufferView": 2,
      "byteOffset": 2359152,
      "componentType": 5126,
      "count": 65532,
      "max": [
        0.9994675517082214,
        0.9999906420707703,
        0.9999998211860657
      ],
      "min": [
        -0.9999797344207764,
        -0.9999892711639404,
        -0.9987571239471436
      ],
      "type": "VEC3"
    },
    {
      "bufferView": 1,
      "byteOffset": 1048512,
      "componentType": 5126,
      "count": 65532,
      "max": [
        0.9997212290763855,
        0.9713025093078613
      ],
      "min": [
        0.000244140625,
        0.00037695898208767176
      ],
      "type": "VEC2"
    },
    {
      "bufferView": 1,
      "byteOffset": 1572768,
      "componentType": 5126,
      "count": 65532,
      "max": [
        0.9997212290763855,
        0.9713025093078613
      ],
      "min": [
        0.000244140625,
        0.00037695898208767176
      ],
      "type": "VEC2"
    },
    {
      "bufferView": 0,
      "byteOffset": 1230684,
      "componentType": 5125,
      "count": 303513,
      "type": "SCALAR"
    },
    {
      "bufferView": 2,
      "byteOffset": 3145536,
      "componentType": 5126,
      "count": 65532,
      "max": [
        0.25709953904151917,
        0.13662400841712952,
        0.328896701335907
      ],
      "min": [
        0.04085206985473633,
        -0.19165697693824768,
        0.0008459091186523438
      ],
      "type": "VEC3"
    },
    {
      "bufferView": 2,
      "byteOffset": 3931920,
      "componentType": 5126,
      "count": 65532,
      "max": [
        0.9999954104423523,
        0.9999710321426392,
        0.9999999403953552
      ],
      "min": [
        -0.9999662041664124,
        -0.9999843835830688,
        -0.9997546076774597
      ],
      "type": "VEC3"
    },
    {
      "bufferView": 1,
      "byteOffset": 2097024,
      "componentType": 5126,
      "count": 65532,
      "max": [
        0.9996686577796936,
        0.9108885526657104
      ],
      "min": [
        0.000244140625,
        0.00024404062423855066
      ],
      "type": "VEC2"
    },
    {
      "bufferView": 1,
      "byteOffset": 2621280,
      "componentType": 5126,
      "count": 65532,
      "max": [
        0.9996686577796936,
        0.9108885526657104
      ],
      "min": [
        0.000244140625,
        0.00024404062423855066
      ],
      "type": "VEC2"
    },
    {
      "bufferView": 0,
      "byteOffset": 2444736,
      "componentType": 5125,
      "count": 281175,
      "type": "SCALAR"
    },
    {
      "bufferView": 2,
      "byteOffset": 4718304,
      "componentType": 5126,
      "count": 65532,
      "max": [
        0.2551508843898773,
        0.1752910315990448,
        0.3392986059188843
      ],
      "min": [
        -0.20232795178890228,
        -0.191904217004776,
        1.7881393432617188e-07
      ],
      "type": "VEC3"
    },
    {
      "bufferView": 2,
      "byteOffset": 5504688,
      "componentType": 5126,
      "count": 65532,
      "max": [
        0.9999886751174927,
        0.9999998211860657,
        0.9999998211860657
      ],
      "min": [
        -0.9999323487281799,
        -0.9999953508377075,
        -0.9999790191650391
      ],
      "type": "VEC3"
    },
    {
      "bufferView": 1,
      "byteOffset": 3145536,
      "componentType": 5126,
      "count": 65532,
      "max": [
        0.9997415542602539,
        0.9040526151657104
      ],
      "min": [
        0.000244140625,
        0.000244398252107203
      ],
      "type": "VEC2"
    },
    {
      "bufferView": 1,
      "byteOffset": 3669792,
      "componentType": 5126,
      "count": 65532,
      "max": [
        0.9997415542602539,
        0.9040526151657104
      ],
      "min": [
        0.000244140625,
        0.000244398252107203
      ],
      "type": "VEC2"
    },
    {
      "bufferView": 0,
      "byteOffset": 3569436,
      "componentType": 5125,
      "count": 242166,
      "type": "SCALAR"
    },
    {
      "bufferView": 2,
      "byteOffset": 6291072,
      "componentType": 5126,
      "count": 65532,
      "max": [
        0.08038247376680374,
        0.1892957091331482,
        0.34872549772262573
      ],
      "min": [
        -0.20228536427021027,
        -0.046147968620061874,
        0.09357231855392456
      ],
      "type": "VEC3"
    },
    {
      "bufferView": 2,
      "byteOffset": 7077456,
      "componentType": 5126,
      "count": 65532,
      "max": [
        0.9985504150390625,
        0.9999620318412781,
        1.0
      ],
      "min": [
        -0.999999463558197,
        -0.9999998807907104,
        -0.9992188215255737
      ],
      "type": "VEC3"
    },
    {
      "bufferView": 1,
      "byteOffset": 4194048,
      "componentType": 5126,
      "count": 65532,
      "max": [
        0.9996500611305237,
        0.9938963651657104
      ],
      "min": [
        0.000244140625,
        0.000248212949372828
      ],
      "type": "VEC2"
    },
    {
      "bufferView": 1,
      "byteOffset": 4718304,
      "componentType": 5126,
      "count": 65532,
      "max": [
        0.9996500611305237,
        0.9938963651657104
      ],
      "min": [
        0.000244140625,
        0.000248212949372828
      ],
      "type": "VEC2"
    },
    {
      "bufferView": 0,
      "byteOffset": 4538100,
      "componentType": 5125,
      "count": 291210,
      "type": "SCALAR"
    },
    {
      "bufferView": 2,
      "byteOffset": 7863840,
      "componentType": 5126,
      "count": 44271,
      "max": [
        0.08011494576931,
        0.19897553324699402,
        0.33051931858062744
      ],
      "min": [
        -0.18933089077472687,
        -0.02759496308863163,
        0.10639399290084839
      ],
      "type": "VEC3"
    },
    {
      "bufferView": 2,
      "byteOffset": 8395092,
      "componentType": 5126,
      "count": 44271,
      "max": [
        0.999988853931427,
        0.9999838471412659,
        0.9999998211860657
      ],
      "min": [
        -0.9999488592147827,
        -0.9999995231628418,
        -0.976274311542511
      ],
      "type": "VEC3"
    },
    {
      "bufferView": 1,
      "byteOffset": 5242560,
      "componentType": 5126,
      "count": 44271,
      "max": [
        0.9997145533561707,
        0.9948729276657104
      ],
      "min": [
        0.000244140625,
        0.00024725927505642176
      ],
      "type": "VEC2"
    },
    {
      "bufferView": 1,
      "byteOffset": 5596728,
      "componentType": 5126,
      "count": 44271,
      "max": [
        0.9997145533561707,
        0.9948729276657104
      ],
      "min": [
        0.000244140625,
        0.00024725927505642176
      ],
      "type": "VEC2"
    },
    {
      "bufferView": 0,
      "byteOffset": 5702940,
      "componentType": 5125,
      "count": 177813,
      "type": "SCALAR"
    }
  ],
  "asset": {
    "extras": {
      "author": "thegiwi_ueacc (https://sketchfab.com/thegiwi_ueacc)",
      "license": "SKETCHFAB Standard (https://sketchfab.com/licenses)",
      "source": "https://sketchfab.com/3d-models/old-fm-radio-on-stool-4dca9eea43d246db92afa1d81bafae4d",
      "title": "Old FM Radio On Stool"
    },
    "generator": "Sketchfab-15.55.0",
    "version": "2.0"
  },
  "bufferViews": [
    {
      "buffer": 0,
      "byteLength": 6414192,
      "name": "floatBufferViews",
      "target": 34963
    },
    {
      "buffer": 0,
      "byteLength": 5950896,
      "byteOffset": 6414192,
      "byteStride": 8,
      "name": "floatBufferViews",
      "target": 34962
    },
    {
      "buffer": 0,
      "byteLength": 8926344,
      "byteOffset": 12365088,
      "byteStride": 12,
      "name": "floatBufferViews",
      "target": 34962
    }
  ],
  "buffers": [
    {
      "byteLength": 21291432,
      "uri": "scene.bin"
    }
  ],
  "extensionsUsed": [
    "KHR_materials_unlit"
  ],
  "images": [
    {
      "uri": "textures/tex_u1_v1_baseColor.jpeg"
    }
  ],
  "materials": [
    {
      "doubleSided": true,
      "extensions": {
        "KHR_materials_unlit": {}
      },
      "name": "tex_u1_v1",
      "pbrMetallicRoughness": {
        "baseColorTexture": {
          "index": 0
        },
        "metallicFactor": 0.0
      }
    }
  ],
  "meshes": [
    {
      "name": "model_tex_u1_v1_0",
      "primitives": [
        {
          "attributes": {
            "NORMAL": 1,
            "POSITION": 0,
            "TEXCOORD_0": 2,
            "TEXCOORD_1": 3
          },
          "indices": 4,
          "material": 0,
          "mode": 4
        }
      ]
    },
    {
      "name": "model_tex_u1_v1_0",
      "primitives": [
        {
          "attributes": {
            "NORMAL": 6,
            "POSITION": 5,
            "TEXCOORD_0": 7,
            "TEXCOORD_1": 8
          },
          "indices": 9,
          "material": 0,
          "mode": 4
        }
      ]
    },
    {
      "name": "model_tex_u1_v1_0",
      "primitives": [
        {
          "attributes": {
            "NORMAL": 11,
            "POSITION": 10,
            "TEXCOORD_0": 12,
            "TEXCOORD_1": 13
          },
          "indices": 14,
          "material": 0,
          "mode": 4
        }
      ]
    },
    {
      "name": "model_tex_u1_v1_0",
      "primitives": [
        {
          "attributes": {
            "NORMAL": 16,
            "POSITION": 15,
            "TEXCOORD_0": 17,
            "TEXCOORD_1": 18
          },
          "indices": 19,
          "material": 0,
          "mode": 4
        }
      ]
    },
    {
      "name": "model_tex_u1_v1_0",
      "primitives": [
        {
          "attributes": {
            "NORMAL": 21,
            "POSITION": 20,
            "TEXCOORD_0": 22,
            "TEXCOORD_1": 23
          },
          "indices": 24,
          "material": 0,
          "mode": 4
        }
      ]
    },
    {
      "name": "model_tex_u1_v1_0",
      "primitives": [
        {
          "attributes": {
            "NORMAL": 26,
            "POSITION": 25,
            "TEXCOORD_0": 27,
            "TEXCOORD_1": 28
          },
          "indices": 29,
          "material": 0,
          "mode": 4
        }
      ]
    }
  ],
  "nodes": [
    {
      "children": [
        1
      ],
      "matrix": [
        1.0,
        0.0,
        0.0,
        0.0,
        0.0,
        2.220446049250313e-16,
        -1.0,
        0.0,
        0.0,
        1.0,
        2.220446049250313e-16,
        0.0,
        0.0,
        0.0,
        0.0,
        1.0
      ],
      "name": "Sketchfab_model"
    },
    {
      "children": [
        2
      ],
      "matrix": [
        1.0,
        0.0,
        0.0,
        0.0,
        0.0,
        0.0,
        1.0,
        0.0,
        0.0,
        -1.0,
        0.0,
        0.0,
        0.0,
        0.0,
        0.0,
        1.0
      ],
      "name": "model.fbx"
    },
    {
      "children": [
        3
      ],
      "name": "RootNode"
    },
    {
      "children": [
        4,
        5,
        6,
        7,
        8,
        9
      ],
      "matrix": [
        1.0,
        0.0,
        0.0,
        0.0,
        0.0,
        2.220446049250313e-16,
        -1.0,
        0.0,
        0.0,
        1.0,
        2.220446049250313e-16,
        0.0,
        0.0,
        0.0,
        0.0,
        1.0
      ],
      "name": "model"
    },
    {
      "mesh": 0,
      "name": "model_tex_u1_v1_0"
    },
    {
      "mesh": 1,
      "name": "model_tex_u1_v1_0"
    },
    {
      "mesh": 2,
      "name": "model_tex_u1_v1_0"
    },
    {
      "mesh": 3,
      "name": "model_tex_u1_v1_0"
    },
    {
      "mesh": 4,
      "name": "model_tex_u1_v1_0"
    },
    {
      "mesh": 5,
      "name": "model_tex_u1_v1_0"
    }
  ],
  "samplers": [
    {
      "magFilter": 9729,
      "minFilter": 9987,
      "wrapS": 10497,
      "wrapT": 10497
    }
  ],
  "scene": 0,
  "scenes": [
    {
      "name": "Sketchfab_Scene",
      "nodes": [
        0
      ]
    }
  ],
  "textures": [
    {
      "sampler": 0,
      "source": 0
    }
  ]
}
